<?xml version="1.0" ?><svg id="Layer_1" style="enable-background:new 0 0 242.9 242.9;" version="1.1" viewBox="0 0 242.9 242.9" xml:space="preserve" xmlns="http://www.w3.org/2000/svg" xmlns:xlink="http://www.w3.org/1999/xlink"><style type="text/css">
	.st0{fill:#DA2127;}
</style><path class="st0" d="M110.3,158.9c0.2,0.2,0.4,0.3,0.5,0.5c-0.3,0-0.5,0-0.7,0c-4.1,0-8.1,0-12.2,0c-14.5,0-27-10-30.1-24.2  c-3.5-15.6,5.5-31.4,20.8-36c11.4-3.5,21.7-1,30.4,7.1c4.5,4.2,8.7,8.7,13,13.1c1.2,1.2,1.5,2.8,0.9,4.4c-0.6,1.6-1.9,2.4-3.6,2.7  c-1.3,0.2-2.4-0.2-3.3-1.2c-4.1-4.2-8.3-8.2-12.4-12.5c-3.3-3.4-7.4-5.4-12-6.2c-10.3-1.8-20.8,4.1-24.6,14  c-4.8,12.5,2.8,26.6,15.8,29.6c2.6,0.6,5.3,0.6,7.9,0.5c0.7,0,1.2,0.2,1.7,0.7C104.9,153.9,107.6,156.4,110.3,158.9z M166.7,96.7  c-8.6-9.6-19.3-13.9-32.2-13c-4.9,0.4-9.6,1.8-14,4.1c-2.4,1.2-4.6,2.7-6.6,4.4c0.1,0.1,0.1,0.1,0.1,0.2c2.6,1.3,5.1,2.8,7.5,4.5  c0.1,0.1,0.5,0.1,0.7-0.1c6.5-4.1,13.5-5.5,21-4.2c7.4,1.3,13.4,5,18,10.9c5.2,6.7,7.2,14.2,5.7,22.6c-1,5.6-3.2,10.7-7,14.9  c-7,7.7-15.7,10.9-26,9.5c-6.3-0.8-11.8-3.6-16.3-8.1c-5.8-5.9-11.7-11.7-17.5-17.6c-0.8-0.8-1.6-1.4-2.8-1.5  c-2-0.2-3.7,0.7-4.6,2.5c-0.8,1.6-0.7,3.3,1,4.9c6.5,6.4,12.9,12.8,19.4,19.2c1.1,1.1,2.3,2.1,3.6,3c4.7,3.4,10.1,5.4,15.9,6.1  c4.5,0.6,9.1,0.5,13.5-0.5c8.5-1.9,15.6-6.3,21.2-13c4.6-5.6,7.4-11.9,8.4-19.1c0.6-4.1,0.4-8.2-0.3-12.3  C174,107.7,171.2,101.7,166.7,96.7z M242.9,0v242.9H0V0H242.9z M185,119.4c-0.1-1.2-0.2-2.4-0.4-3.6c-0.6-5.2-2.1-10.2-4.4-14.9  c-4-8.1-9.9-14.6-17.6-19.3c-5-3.1-10.4-5.2-16.3-6.2c-1.9-0.3-3.8-0.5-5.7-0.7c-0.2,0-0.5-0.1-0.7-0.1h-3.8  c-1.2,0.1-2.5,0.2-3.7,0.4c-5.2,0.6-10.2,2.1-15,4.4c-4.9,2.4-9.2,5.5-13,9.4c-0.2,0.2-0.5,0.3-0.8,0.2c-2.6-0.4-5.3-0.5-8-0.4  c-5.4,0.3-10.6,1.6-15.5,4c-9.4,4.7-16,12-19.8,21.8c-1.4,3.6-2.2,7.4-2.4,11.3c0,0.2-0.1,0.5-0.1,0.7v4.1c0.1,1,0.2,2.1,0.4,3.1  c0.5,4.3,1.8,8.5,3.7,12.3c4.4,8.8,11.1,15.2,20.1,19.1c4.1,1.8,8.5,2.8,13,3.1c0.2,0,0.5,0.1,0.7,0.1h44.7c1.2-0.1,2.3-0.2,3.5-0.4  c5.2-0.6,10.2-2.1,14.9-4.4c8.1-4,14.5-9.8,19.3-17.5c3.1-5,5.3-10.5,6.2-16.4c0.3-1.8,0.4-3.6,0.7-5.5c0-0.2,0.1-0.4,0.1-0.7V119.4  z"/></svg>