<?xml version="1.0" encoding="utf-8"?>
<!-- Generator: Adobe Illustrator 25.4.1, SVG Export Plug-In . SVG Version: 6.00 Build 0)  -->
<svg version="1.1" id="Layer_1" xmlns:serif="http://www.serif.com/"
	 xmlns="http://www.w3.org/2000/svg" xmlns:xlink="http://www.w3.org/1999/xlink" x="0px" y="0px" viewBox="0 0 30 30"
	 style="enable-background:new 0 0 30 30;" xml:space="preserve">
<style type="text/css">
	.st0{fill-rule:evenodd;clip-rule:evenodd;fill:#FFFFFF;}
</style>
<path class="st0" d="M15,0c8.3,0,15,6.7,15,15s-6.7,15-15,15S0,23.3,0,15S6.7,0,15,0z M10.3,23.4V11.7H6.4v11.7H10.3z M24.4,23.4
	v-6.7c0-3.6-1.9-5.3-4.5-5.3c-2.1,0-3,1.1-3.5,1.9v-1.7h-3.9c0.1,1.1,0,11.7,0,11.7h3.9v-6.5c0-0.4,0-0.7,0.1-1
	c0.3-0.7,0.9-1.4,2-1.4c1.4,0,2,1.1,2,2.6v6.3C20.5,23.4,24.4,23.4,24.4,23.4z M8.4,6.1c-1.3,0-2.2,0.9-2.2,2c0,1.1,0.8,2,2.2,2h0
	c1.4,0,2.2-0.9,2.2-2C10.5,6.9,9.7,6.1,8.4,6.1z"/>
</svg>
