<?xml version="1.0" encoding="utf-8"?>
<!-- Generator: Adobe Illustrator 25.4.1, SVG Export Plug-In . SVG Version: 6.00 Build 0)  -->
<svg version="1.1" id="Layer_2" xmlns="http://www.w3.org/2000/svg" xmlns:xlink="http://www.w3.org/1999/xlink" x="0px" y="0px"
	 viewBox="0 0 612 592.2" style="enable-background:new 0 0 612 592.2;" xml:space="preserve">
<style type="text/css">
	.st0{fill:none;stroke:#25408F;stroke-width:16;stroke-linejoin:round;stroke-miterlimit:10;}
	.st1{fill:none;stroke:#25408F;stroke-width:16;stroke-linecap:round;stroke-linejoin:round;stroke-miterlimit:10;}
	.st2{fill:none;stroke:#25408F;stroke-width:26;stroke-miterlimit:10;}
	.st3{fill:none;stroke:#25408F;stroke-width:22;stroke-linejoin:round;stroke-miterlimit:10;}
</style>
<g>
	<g>
		<rect x="-650.8" y="-66" class="st0" width="62.7" height="62.7"/>
		<rect x="-650.8" y="181" class="st0" width="62.7" height="62.7"/>
		<rect x="-218.1" y="-66" class="st0" width="62.7" height="62.7"/>
		<rect x="-218.1" y="181" class="st0" width="62.7" height="62.7"/>
		<rect x="-434.4" y="-66" class="st0" width="62.7" height="62.7"/>
		<path class="st0" d="M-619.4,177c0,0-8.4-171.3,185-211.6h-153.6"/>
		<path class="st0" d="M-186.4,177c0,0,8.4-171.3-185-211.6h153.6"/>
	</g>
	<g>
		<path class="st0" d="M-328.1,336H-478c-5.8,0-10.5-4.7-10.5-10.5v-18.1c0-5.8,4.7-10.5,10.5-10.5h149.9c5.8,0,10.5,4.7,10.5,10.5
			v18.1C-317.6,331.3-322.3,336-328.1,336z"/>
		<line class="st1" x1="-470.8" y1="336" x2="-470.8" y2="437"/>
		<line class="st1" x1="-334.8" y1="336" x2="-334.8" y2="437"/>
	</g>
	<path class="st1" d="M-447.8,118l44.8-80l90.2,166c0,0-45,44.7-49,92.9"/>
	<path class="st1" d="M-444.3,296.9c-4-48.1-49-92.9-49-92.9l15.5-27"/>
	<circle class="st1" cx="-461.8" cy="146.5" r="0.5"/>
	<line class="st1" x1="-402.8" y1="44" x2="-402.8" y2="157"/>
	<circle class="st1" cx="-402.8" cy="183.6" r="24.6"/>
</g>
<g>
	<circle class="st1" cx="-283.7" cy="318.6" r="14.2"/>
	<circle class="st1" cx="-210.3" cy="318.6" r="14.2"/>
	<rect x="-650.8" y="253.5" class="st1" width="495.4" height="118.4"/>
	<rect x="-650.8" y="371.9" class="st1" width="495.4" height="384.6"/>
	<polyline class="st2" points="-484.3,488.1 -573.7,568.9 -484.3,642.1 	"/>
	<polyline class="st2" points="-321.3,488.1 -232,568.9 -321.3,642.1 	"/>
	<line class="st3" x1="-380.8" y1="451.5" x2="-424.9" y2="685.1"/>
</g>
<g>
	<path class="st1" d="M267.6,225.6H64.1c0,0,11.7-56.5,55.7-29.3c0,0,47.9-94,103.6,0C223.4,196.3,259.6,180.5,267.6,225.6z"/>
	<path class="st1" d="M115.9,499.2H64.1V361.4c0,0-3.9-87,121.2-85h211.1c0,0,79.2,8.8,82.1,85c2.9,76.2,0,0,0,0l1.3,137.8h-50.2"/>
	<polyline class="st1" points="240.1,225.6 210.7,276.3 360.3,276.3 285.5,140.5 253.9,198.9 	"/>
	<line class="st1" x1="64.1" y1="377" x2="105.2" y2="337.5"/>
	<line class="st1" x1="64.1" y1="395.6" x2="182.4" y2="395.6"/>
	<line class="st1" x1="182.4" y1="282.1" x2="182.4" y2="395.6"/>
	<line class="st1" x1="182.4" y1="320.3" x2="109.1" y2="395.6"/>
	<line class="st1" x1="219.5" y1="282.1" x2="219.5" y2="395.6"/>
	<line class="st1" x1="478.8" y1="395.6" x2="219.5" y2="395.6"/>
	<line class="st1" x1="360.3" y1="276.3" x2="360.3" y2="391.7"/>
	<line class="st1" x1="366.1" y1="349.6" x2="423.8" y2="292.6"/>
	<line class="st1" x1="380.8" y1="391.7" x2="420.8" y2="350.6"/>
	<line class="st1" x1="223.4" y1="379" x2="280.1" y2="321.1"/>
	<line class="st1" x1="272" y1="391.7" x2="301.6" y2="361.4"/>
	<line class="st1" x1="219.5" y1="437.6" x2="290.9" y2="437.6"/>
	<line class="st1" x1="327.1" y1="437.6" x2="327.1" y2="437.6"/>
	<line class="st1" x1="199" y1="499.2" x2="349.2" y2="499.2"/>
	<line class="st1" x1="76.8" y1="538.3" x2="235.1" y2="538.3"/>
	<line class="st1" x1="274.1" y1="538.3" x2="547.9" y2="538.3"/>
	<line class="st1" x1="547.9" y1="484.5" x2="484.4" y2="382.9"/>
	<line class="st1" x1="480.8" y1="371.8" x2="545" y2="371.8"/>
	<line class="st1" x1="449.2" y1="225.6" x2="545" y2="371.8"/>
	<line class="st1" x1="516.1" y1="225.6" x2="449.2" y2="225.6"/>
	<line class="st1" x1="480.8" y1="169.1" x2="516.1" y2="225.6"/>
	<line class="st1" x1="463.9" y1="143.5" x2="463.9" y2="143.5"/>
	<line class="st1" x1="366.1" y1="221.6" x2="348.2" y2="252.2"/>
	<line class="st1" x1="449.2" y1="112.1" x2="411" y2="53.5"/>
	<line class="st1" x1="316.8" y1="197.4" x2="411" y2="53.5"/>
	<circle class="st1" cx="156" cy="499.7" r="39.1"/>
	<circle class="st1" cx="387.3" cy="499.7" r="39.1"/>
</g>
</svg>
