<?xml version="1.0" encoding="utf-8"?>
<!-- Generator: Adobe Illustrator 25.4.1, SVG Export Plug-In . SVG Version: 6.00 Build 0)  -->
<svg version="1.1" id="Layer_2" xmlns="http://www.w3.org/2000/svg" xmlns:xlink="http://www.w3.org/1999/xlink" x="0px" y="0px"
	 viewBox="0 0 612 592.2" style="enable-background:new 0 0 612 592.2;" xml:space="preserve">
<style type="text/css">
	.st0{fill:none;stroke:#25408F;stroke-width:16;stroke-linejoin:round;stroke-miterlimit:10;}
	.st1{fill:none;stroke:#25408F;stroke-width:16;stroke-linecap:round;stroke-linejoin:round;stroke-miterlimit:10;}
	.st2{fill:none;stroke:#25408F;stroke-width:26;stroke-miterlimit:10;}
	.st3{fill:none;stroke:#25408F;stroke-width:22;stroke-linejoin:round;stroke-miterlimit:10;}
</style>
<g>
	<g>
		<rect x="58.3" y="48.3" class="st0" width="62.7" height="62.7"/>
		<rect x="58.3" y="295.3" class="st0" width="62.7" height="62.7"/>
		<rect x="491" y="48.3" class="st0" width="62.7" height="62.7"/>
		<rect x="491" y="295.3" class="st0" width="62.7" height="62.7"/>
		<rect x="274.6" y="48.3" class="st0" width="62.7" height="62.7"/>
		<path class="st0" d="M89.6,291.3c0,0-8.4-171.3,185-211.6H121"/>
		<path class="st0" d="M522.7,291.3c0,0,8.4-171.3-185-211.6h153.6"/>
	</g>
	<g>
		<path class="st0" d="M381,450.3H231c-5.8,0-10.5-4.7-10.5-10.5v-18.1c0-5.8,4.7-10.5,10.5-10.5H381c5.8,0,10.5,4.7,10.5,10.5v18.1
			C391.5,445.6,386.7,450.3,381,450.3z"/>
		<line class="st1" x1="238.2" y1="450.3" x2="238.2" y2="551.3"/>
		<line class="st1" x1="374.2" y1="450.3" x2="374.2" y2="551.3"/>
	</g>
	<path class="st1" d="M261.2,232.3l44.8-80l90.2,166c0,0-45,44.7-49,92.9"/>
	<path class="st1" d="M264.7,411.2c-4-48.1-49-92.9-49-92.9l15.5-27"/>
	<circle class="st1" cx="247.2" cy="260.8" r="0.5"/>
	<line class="st1" x1="306.2" y1="158.3" x2="306.2" y2="271.3"/>
	<circle class="st1" cx="306.2" cy="298" r="24.6"/>
</g>
<g>
	<circle class="st1" cx="-187.1" cy="714.3" r="14.2"/>
	<circle class="st1" cx="-113.7" cy="714.3" r="14.2"/>
	<rect x="-554.1" y="649.1" class="st1" width="495.4" height="118.4"/>
	<rect x="-554.1" y="767.6" class="st1" width="495.4" height="384.6"/>
	<polyline class="st2" points="-387.7,883.8 -477,964.6 -387.7,1037.8 	"/>
	<polyline class="st2" points="-224.7,883.8 -135.4,964.6 -224.7,1037.8 	"/>
	<line class="st3" x1="-284.1" y1="847.2" x2="-328.3" y2="1080.8"/>
</g>
<g>
	<path class="st1" d="M987.7-125.4H784.3c0,0,11.7-56.5,55.7-29.3c0,0,47.9-94,103.6,0C943.6-154.7,979.8-170.5,987.7-125.4z"/>
	<path class="st1" d="M836.1,148.2h-51.8V10.4c0,0-3.9-87,121.2-85h211.1c0,0,79.2,8.8,82.1,85s0,0,0,0l1.3,137.8h-50.2"/>
	<polyline class="st1" points="960.3,-125.4 930.9,-74.7 1080.4,-74.7 1005.7,-210.5 974,-152.1 	"/>
	<line class="st1" x1="784.3" y1="26" x2="825.3" y2="-13.5"/>
	<line class="st1" x1="784.3" y1="44.6" x2="902.5" y2="44.6"/>
	<line class="st1" x1="902.5" y1="-68.9" x2="902.5" y2="44.6"/>
	<line class="st1" x1="902.5" y1="-30.7" x2="829.2" y2="44.6"/>
	<line class="st1" x1="939.7" y1="-68.9" x2="939.7" y2="44.6"/>
	<line class="st1" x1="1199" y1="44.6" x2="939.7" y2="44.6"/>
	<line class="st1" x1="1080.4" y1="-74.7" x2="1080.4" y2="40.7"/>
	<line class="st1" x1="1086.3" y1="-1.4" x2="1144" y2="-58.4"/>
	<line class="st1" x1="1101" y1="40.7" x2="1141" y2="-0.4"/>
	<line class="st1" x1="943.6" y1="28" x2="1000.3" y2="-29.9"/>
	<line class="st1" x1="992.1" y1="40.7" x2="1021.8" y2="10.4"/>
	<line class="st1" x1="939.7" y1="86.6" x2="1011" y2="86.6"/>
	<line class="st1" x1="1047.3" y1="86.6" x2="1047.3" y2="86.6"/>
	<line class="st1" x1="919.2" y1="148.2" x2="1069.3" y2="148.2"/>
	<line class="st1" x1="797" y1="187.3" x2="955.3" y2="187.3"/>
	<line class="st1" x1="994.3" y1="187.3" x2="1268.1" y2="187.3"/>
	<line class="st1" x1="1268.1" y1="133.5" x2="1204.6" y2="31.9"/>
	<line class="st1" x1="1201" y1="20.8" x2="1265.2" y2="20.8"/>
	<line class="st1" x1="1169.4" y1="-125.4" x2="1265.2" y2="20.8"/>
	<line class="st1" x1="1236.3" y1="-125.4" x2="1169.4" y2="-125.4"/>
	<line class="st1" x1="1201" y1="-181.9" x2="1236.3" y2="-125.4"/>
	<line class="st1" x1="1184" y1="-207.5" x2="1184" y2="-207.5"/>
	<line class="st1" x1="1086.3" y1="-129.4" x2="1068.3" y2="-98.8"/>
	<line class="st1" x1="1169.4" y1="-238.9" x2="1131.2" y2="-297.5"/>
	<line class="st1" x1="1037" y1="-153.6" x2="1131.2" y2="-297.5"/>
	<circle class="st1" cx="876.2" cy="148.7" r="39.1"/>
	<circle class="st1" cx="1107.4" cy="148.7" r="39.1"/>
</g>
</svg>
